<svg width="113" height="47" viewBox="0 0 113 47" fill="none" xmlns="http://www.w3.org/2000/svg">
<path d="M40.2633 11.1859C41.4141 11.1564 42.5061 10.6711 43.2993 9.83681C44.0925 9.0025 44.5219 7.8874 44.4933 6.73658V6.69271C44.4634 5.83609 44.1806 5.00748 43.6806 4.31127C43.1806 3.61505 42.4857 3.08237 41.6836 2.78031C40.8814 2.47825 40.0078 2.42032 39.1728 2.61382C38.3378 2.80732 37.5787 3.2436 36.9911 3.8677C36.4036 4.4918 36.0139 5.27581 35.8711 6.12098C35.7283 6.96615 35.8388 7.83468 36.1886 8.61717C36.5385 9.39966 37.1121 10.0611 37.8372 10.5182C38.5623 10.9753 39.4064 11.2077 40.2633 11.1859Z" fill="white"/>
<path d="M33.7836 16.4124L31.1265 17.0014C26.7399 18.0041 22.936 18.8814 18.5932 19.8841C16.3623 20.3478 14.2441 19.5896 13.2979 17.6156L25.4677 16.92L33.7836 16.4124Z" fill="white"/>
<path d="M33.6457 18.1294L34.3225 17.7722L33.4765 18.0166L33.0692 18.1357L20.3353 21.8643C20.9188 22.5105 21.7027 22.9416 22.5609 23.0882C23.4191 23.2348 24.3017 23.0885 25.0667 22.6727L30.3244 19.8527L33.0316 18.4427L33.6457 18.1294Z" fill="white"/>
<path d="M34.0907 20.3792L31.2143 23.6191C30.0424 24.9413 28.9583 25.1983 27.0281 24.4901L33.8651 20.1035L34.8301 19.4768L34.0781 20.3604L34.0907 20.3792Z" fill="white"/>
<path d="M19.3515 15.0903L28.3003 15.0025H28.9269H30.5187H30.7067L32.9125 14.9524L30.08 14.5576L29.0585 14.4135L23.5063 13.6176L22.9109 13.5299C19.0381 12.9784 15.5351 12.4645 11.7061 11.9256C9.95775 11.6812 8.09028 11.418 6.31055 11.1548C6.71371 12.3374 7.48061 13.3623 8.50152 14.0826C9.52243 14.803 10.745 15.182 11.9944 15.1655L18.9567 15.0965L19.3515 15.0903Z" fill="white"/>
<path d="M39.8059 25.6934C38.5525 31.0953 34.1659 37.8069 24.8035 44.7942C40.7333 36.3468 45.0135 27.3039 45.402 26.1947C45.4629 26.0567 45.5131 25.9143 45.5524 25.7686C45.6583 25.4665 45.7482 25.159 45.8219 24.8474L45.8595 24.6908C46.4709 22.1645 46.0539 19.4988 44.7001 17.28C43.3462 15.0612 41.1665 13.471 38.6403 12.8593L34.6171 11.9067L32.3172 11.349L31.6028 11.1735L1.57294 3.89795C1.7714 5.28894 2.43849 6.57059 3.46397 7.53112C4.48946 8.49166 5.81195 9.07359 7.21294 9.18075C8.39734 9.31862 9.57547 9.48155 10.7473 9.64448C10.7473 9.64448 21.0811 10.3839 29.0648 12.2765L32.0227 12.9909C34.7383 13.6448 37.0834 15.3499 38.5428 17.7316C40.0021 20.1133 40.4564 22.9769 39.8059 25.6934Z" fill="white"/>
<path d="M56.494 2.18091L59.0007 8.86117L61.5073 2.18091H63.4688V10.8978H61.9711V8.02144L62.1215 4.17997L59.5333 10.8978H58.4617L55.8924 4.18624L56.0428 8.02144V10.8978H54.52V2.18091H56.494Z" fill="white"/>
<path d="M68.5573 6.31064L70.5627 2.18091H72.2421L69.3219 7.68931V10.8978H67.7991V7.68931L64.8725 2.18091H66.552L68.5573 6.31064Z" fill="white"/>
<path d="M108.106 13.1599H57.6157C57.2087 13.1583 56.8054 13.2372 56.4291 13.3922C56.0527 13.5472 55.7108 13.7752 55.423 14.063C55.1352 14.3508 54.9072 14.6927 54.7523 15.069C54.5973 15.4454 54.5183 15.8487 54.52 16.2557V29.4157C54.52 30.2334 54.8448 31.0176 55.423 31.5958C56.0012 32.174 56.7855 32.4989 57.6032 32.4989H108.094C108.911 32.4989 109.696 32.174 110.274 31.5958C110.852 31.0176 111.177 30.2334 111.177 29.4157V16.2557C111.179 15.8508 111.1 15.4495 110.947 15.0748C110.794 14.7001 110.568 14.3593 110.283 14.0718C109.998 13.7844 109.659 13.5559 109.285 13.3994C108.912 13.243 108.511 13.1616 108.106 13.1599ZM60.2853 30.2115H56.8136V19.8089H60.2853V30.2115ZM60.2853 18.8689H56.8136V15.7355H60.2853V18.8689ZM72.5241 18.449H66.0319V21.4946H71.5089V24.0765H66.0319V27.5294H72.5053V30.2115H62.5476V15.7543H72.5241V18.449ZM84.4308 30.2115H74.8992V15.7543H78.3835V27.5294H84.4496L84.4308 30.2115ZM96.5066 18.449H92.1701V30.2115H88.6796V18.449H84.4245V15.7543H96.5066V18.449ZM101.877 20.6799C102.522 21.0982 103.228 21.4132 103.97 21.6137C104.825 21.8747 105.65 22.2233 106.433 22.6539C107.135 22.9905 107.727 23.5185 108.142 24.1771C108.556 24.8357 108.777 25.5981 108.777 26.3763C108.8 26.9521 108.681 27.5247 108.431 28.0438C108.181 28.5629 107.807 29.0124 107.342 29.353C106.18 30.1303 104.795 30.5026 103.4 30.4121C102.307 30.4291 101.222 30.2156 100.217 29.7854C99.3488 29.4332 98.6035 28.834 98.0733 28.0621C97.5912 27.3158 97.3405 26.4437 97.3527 25.5554H100.893C100.87 25.8697 100.914 26.1853 101.022 26.4813C101.13 26.7773 101.3 27.047 101.52 27.2725C102.083 27.6885 102.778 27.8846 103.475 27.8239C103.959 27.8499 104.439 27.718 104.841 27.4479C105.003 27.3268 105.133 27.1684 105.22 26.9862C105.308 26.804 105.35 26.6033 105.343 26.4014C105.354 26.1738 105.31 25.9468 105.215 25.7396C105.12 25.5324 104.977 25.351 104.797 25.2107C104.222 24.8176 103.587 24.5193 102.917 24.3271C102.158 24.0795 101.415 23.7844 100.693 23.4435C98.8211 22.5244 97.8853 21.2606 97.8853 19.6522C97.8733 18.8862 98.1182 18.1383 98.5809 17.5278C99.1009 16.8825 99.7849 16.389 100.561 16.099C101.481 15.7493 102.46 15.5771 103.444 15.5914C104.404 15.5747 105.357 15.7627 106.239 16.1429C107.014 16.4803 107.679 17.0299 108.156 17.7283C108.618 18.424 108.859 19.2433 108.846 20.0783H105.28C105.294 19.8243 105.253 19.5701 105.16 19.3332C105.067 19.0964 104.924 18.8824 104.741 18.7059C104.331 18.3658 103.807 18.1934 103.275 18.2234C102.752 18.1923 102.234 18.3356 101.802 18.6307C101.63 18.744 101.49 18.8992 101.395 19.0818C101.299 19.2644 101.252 19.4683 101.258 19.6742C101.264 19.88 101.322 20.081 101.427 20.2581C101.532 20.4352 101.68 20.5826 101.858 20.6862L101.877 20.6799Z" fill="white"/>
<path d="M74.6548 37.4935H73.79V39.0539H74.6548C74.8813 39.0671 75.1046 38.9956 75.2814 38.8534C75.3572 38.7799 75.4161 38.6909 75.4539 38.5924C75.4918 38.4939 75.5078 38.3884 75.5008 38.2831C75.5068 38.178 75.4916 38.0728 75.4561 37.9738C75.4205 37.8747 75.3654 37.7838 75.294 37.7066C75.2077 37.6292 75.1065 37.5703 74.9965 37.5336C74.8865 37.497 74.7702 37.4833 74.6548 37.4935Z" fill="white"/>
<path d="M66.082 39.8874H67.3855L66.7337 37.9385L66.082 39.8874Z" fill="white"/>
<path d="M59.7276 37.4935H58.7437V39.1291H59.7025C59.9288 39.1405 60.1515 39.0692 60.3292 38.9285C60.4064 38.8559 60.4667 38.7672 60.5057 38.6686C60.5447 38.57 60.5614 38.4641 60.5548 38.3583C60.5608 38.2441 60.544 38.1298 60.5052 38.0222C60.4665 37.9146 60.4066 37.8158 60.3292 37.7316C60.1677 37.5762 59.9516 37.4907 59.7276 37.4935Z" fill="white"/>
<path d="M105.907 37.4935H105.042V39.0539H105.907C106.133 39.0671 106.357 38.9956 106.533 38.8534C106.609 38.7799 106.668 38.6909 106.706 38.5924C106.744 38.4939 106.76 38.3884 106.753 38.2831C106.759 38.178 106.743 38.0728 106.708 37.9738C106.672 37.8747 106.617 37.7838 106.546 37.7066C106.46 37.6292 106.358 37.5703 106.248 37.5336C106.138 37.497 106.022 37.4833 105.907 37.4935Z" fill="white"/>
<path d="M54.52 34.2473V44.2113H111.177V34.2473H54.52ZM61.1188 39.5552C60.7048 39.8709 60.1908 40.0267 59.6712 39.9938H58.7312V41.83H57.6533V36.6224H59.6837C60.0405 36.6165 60.394 36.6914 60.7177 36.8417C61.0032 36.9772 61.2412 37.1956 61.4008 37.4684C61.5605 37.7397 61.6429 38.0497 61.6389 38.3645C61.6492 38.5884 61.6089 38.8116 61.521 39.0178C61.4331 39.2239 61.2999 39.4076 61.1313 39.5552H61.1188ZM68.0121 41.83L67.68 40.7333H65.8L65.4428 41.8049H64.296L66.2324 36.5973H67.2288L69.1777 41.8049L68.0121 41.83ZM76.7479 41.83H75.5948L74.6172 39.95H73.7649V41.83H72.6933V36.6224H74.6297C75.1376 36.5906 75.6406 36.7368 76.0523 37.036C76.2191 37.1779 76.3511 37.3562 76.438 37.5572C76.5249 37.7583 76.5645 37.9766 76.5536 38.1953C76.5633 38.508 76.4829 38.817 76.3217 39.0852C76.1468 39.3382 75.9033 39.536 75.6199 39.6554L76.7479 41.7798V41.83ZM84.4245 37.4934H82.8265V41.83H81.78V37.4934H80.2133V36.6224H84.4559L84.4245 37.4934ZM92.2516 41.83H91.18L89.0932 38.4084V41.83H88.0153V36.6224H89.0932L91.18 40.0565V36.6224H92.2516V41.83ZM100.016 41.83H96.5255V36.6224H100.01V37.4934H97.5971V38.7468H99.6588V39.5865H97.5971V40.984H100.016V41.83ZM108.025 41.83H106.872L105.894 39.95H105.042V41.83H104.027V36.6224H105.907C106.415 36.5906 106.918 36.7368 107.329 37.036C107.496 37.1779 107.628 37.3562 107.715 37.5572C107.802 37.7583 107.841 37.9766 107.831 38.1953C107.84 38.508 107.76 38.817 107.599 39.0852C107.424 39.3382 107.18 39.536 106.897 39.6554L108.025 41.7798V41.83Z" fill="white"/>
<path d="M109.823 12.8154C109.551 12.8117 109.285 12.7276 109.06 12.5738C108.835 12.4199 108.661 12.2031 108.559 11.9504C108.456 11.6978 108.431 11.4206 108.485 11.1535C108.54 10.8864 108.672 10.6414 108.865 10.4491C109.058 10.2568 109.304 10.1258 109.571 10.0724C109.838 10.0191 110.116 10.0458 110.368 10.1493C110.62 10.2527 110.836 10.4282 110.989 10.6539C111.142 10.8796 111.225 11.1454 111.227 11.4179C111.227 11.602 111.191 11.7842 111.12 11.9542C111.049 12.1241 110.946 12.2785 110.816 12.4083C110.685 12.5382 110.53 12.641 110.36 12.7108C110.19 12.7807 110.007 12.8162 109.823 12.8154ZM109.823 12.5334C110.04 12.5297 110.251 12.462 110.43 12.3389C110.609 12.2157 110.747 12.0426 110.828 11.8411C110.909 11.6396 110.929 11.4188 110.884 11.2063C110.84 10.9938 110.734 10.799 110.58 10.6464C110.426 10.4937 110.23 10.3901 110.017 10.3483C109.804 10.3065 109.583 10.3286 109.383 10.4116C109.182 10.4946 109.01 10.635 108.889 10.8151C108.768 10.9953 108.703 11.2071 108.702 11.4242C108.702 11.5712 108.732 11.7166 108.789 11.8521C108.847 11.9875 108.93 12.1103 109.035 12.2134C109.14 12.3164 109.264 12.3978 109.4 12.4527C109.537 12.5076 109.683 12.535 109.83 12.5334H109.823Z" fill="white"/>
<path d="M109.259 10.6533C109.533 10.5876 109.819 10.5876 110.093 10.6533C110.151 10.6641 110.207 10.687 110.257 10.7207C110.306 10.7544 110.347 10.7981 110.379 10.8489C110.41 10.8997 110.43 10.9565 110.438 11.0157C110.446 11.0748 110.442 11.135 110.425 11.1922C110.425 11.2925 110.343 11.3552 110.199 11.4617C110.385 11.6747 110.493 11.9441 110.506 12.2262H110.231C110.199 12.1009 110.174 11.9818 110.137 11.869C110.113 11.8015 110.08 11.738 110.036 11.681C110.012 11.6392 109.976 11.6052 109.932 11.583C109.889 11.5608 109.84 11.5513 109.792 11.5557H109.541V12.2262H109.259V10.6533ZM109.541 11.3301H109.861C109.93 11.326 109.998 11.309 110.061 11.28C110.094 11.2605 110.121 11.2329 110.139 11.2C110.158 11.167 110.168 11.1298 110.168 11.092C110.168 11.0541 110.158 11.0169 110.139 10.984C110.121 10.951 110.094 10.9235 110.061 10.904C109.896 10.8383 109.717 10.8188 109.541 10.8476V11.3301Z" fill="white"/>
</svg>
